<svg viewBox="0 0 64 64" xml:space="preserve" xmlns="http://www.w3.org/2000/svg"><g fill="#ffffff" class="fill-37474f"><path d="M22 31.001c-4.965 0-9 4.035-9 9s4.035 9 9 9c4.969 0 9-4.035 9-9s-4.031-9-9-9zm0 17c-4.415 0-8-3.585-8-8s3.585-8 8-8c4.416 0 8 3.585 8 8s-3.584 8-8 8z"></path><path d="M23 24.001c.074 0 .201.104.216.177l.606 3.035c.014.069.026.152.044.268l.105.672.663.149c1.335.3 2.603.827 3.769 1.566l.573.363.549-.398.053-.038c.06-.044.118-.087.173-.123l2.576-1.719a.228.228 0 0 1 .11-.022c.09 0 .152.033.169.05l1.414 1.414c.053.053.068.217.028.277l-1.722 2.581c-.039.06-.091.128-.156.217l-.405.551.366.578a11.838 11.838 0 0 1 1.567 3.768l.149.662.671.106.05.007v.001c.077.012.154.023.215.035l3.038.607c.075.015.179.142.179.216v2c0 .074-.104.201-.177.216l-3.035.606c-.064.013-.142.024-.219.036l-.05.008-.671.106-.149.662a11.86 11.86 0 0 1-1.567 3.768l-.352.599.406.551c.05.068.102.137.143.199l1.719 2.577c.042.063.025.226-.027.278l-1.415 1.415a.27.27 0 0 1-.169.05.217.217 0 0 1-.107-.022l-2.58-1.722c-.058-.038-.124-.087-.218-.156l-.551-.403-.576.365a11.888 11.888 0 0 1-3.77 1.566l-.669.182-.104.673c-.013.082-.025.165-.038.23l-.607 3.038c-.015.073-.142.178-.216.178h-2c-.074 0-.201-.104-.216-.177l-.608-3.045c-.012-.057-.021-.123-.031-.189l-.011-.069-.105-.672-.663-.149a11.898 11.898 0 0 1-3.766-1.567l-.575-.364-.55.4-.052.038c-.06.044-.119.088-.174.124l-2.577 1.719a.206.206 0 0 1-.108.023.27.27 0 0 1-.17-.051L9.98 50.607c-.052-.052-.068-.215-.027-.276l1.722-2.58c.034-.053.078-.112.122-.172l.038-.052.4-.55-.364-.575a11.875 11.875 0 0 1-1.567-3.766l-.149-.663-.675-.106-.069-.011c-.066-.01-.133-.02-.195-.032l-3.038-.607c-.074-.015-.178-.142-.178-.216v-2c0-.074.104-.201.177-.216l3.045-.608c.057-.012.123-.021.189-.031l.069-.011.672-.105.149-.663c.3-1.332.827-2.599 1.567-3.766l.364-.575-.4-.55-.038-.052c-.044-.06-.088-.119-.124-.174l-1.719-2.577c-.042-.063-.025-.226.027-.278l1.415-1.415c.021-.021.086-.049.168-.049.06 0 .099.015.108.021l2.581 1.722c.052.034.111.078.171.122l.052.038.55.4.577-.364a11.875 11.875 0 0 1 3.766-1.567l.663-.149.105-.672.011-.069c.01-.066.02-.133.032-.195l.607-3.038c.015-.073.142-.178.216-.178h2v-.001zm0-1h-2c-.55 0-1.088.441-1.196.98l-.607 3.039c-.019.09-.034.2-.051.307a12.898 12.898 0 0 0-4.082 1.698c-.09-.065-.182-.134-.26-.186l-2.578-1.72a1.197 1.197 0 0 0-.663-.189c-.324 0-.65.117-.876.343l-1.414 1.414c-.39.389-.458 1.081-.153 1.539l1.72 2.578c.052.078.12.17.186.26a12.898 12.898 0 0 0-1.698 4.082c-.106.017-.217.032-.307.051l-3.041.608c-.539.108-.98.646-.98 1.196v2c0 .55.441 1.088.98 1.196l3.039.607c.09.019.2.034.307.051a12.898 12.898 0 0 0 1.698 4.082c-.065.09-.134.182-.186.26l-1.72 2.578c-.305.458-.236 1.15.153 1.539l1.414 1.414c.226.226.553.344.877.344.235 0 .47-.063.662-.19l2.578-1.72c.078-.052.17-.12.26-.186a12.898 12.898 0 0 0 4.082 1.698c.017.106.032.217.051.307l.607 3.039c.108.539.646.98 1.196.98h2c.55 0 1.088-.441 1.196-.98l.607-3.039c.018-.09.034-.199.051-.306a12.912 12.912 0 0 0 4.085-1.697c.088.064.179.132.257.184l2.578 1.72c.192.128.427.19.662.19.325 0 .651-.118.877-.344l1.414-1.414c.39-.389.458-1.081.153-1.539l-1.72-2.578a6.753 6.753 0 0 0-.185-.258 12.895 12.895 0 0 0 1.698-4.084c.105-.017.216-.033.306-.051l3.039-.607c.539-.108.98-.646.98-1.196v-2c0-.55-.441-1.088-.98-1.196l-3.039-.607c-.09-.018-.2-.034-.306-.051a12.895 12.895 0 0 0-1.698-4.084c.065-.089.133-.18.185-.258l1.72-2.578c.304-.458.236-1.149-.153-1.539l-1.414-1.414a1.243 1.243 0 0 0-.876-.343c-.236 0-.471.062-.663.189l-2.578 1.72c-.078.052-.169.119-.258.184a12.897 12.897 0 0 0-4.084-1.697c-.017-.106-.033-.216-.051-.306l-.607-3.039c-.106-.54-.644-.981-1.194-.981z"></path><path d="M22 35.946c-2.207 0-4 1.816-4 4.055s1.793 4.055 4 4.055 4-1.816 4-4.055-1.793-4.055-4-4.055zm0 7.055c-1.655 0-3-1.345-3-3s1.345-3 3-3 3 1.345 3 3-1.345 3-3 3zM57.36 16.359l-3.099-.017a6.718 6.718 0 0 0-.409.012 9.877 9.877 0 0 0-1.116-1.691 8.26 8.26 0 0 0 .169-.369l1.194-2.86c.211-.507.013-1.174-.443-1.48l-1.658-1.119a1.254 1.254 0 0 0-.925-.169c-.232.045-.45.151-.615.313l-2.203 2.18a7.74 7.74 0 0 0-.279.295 9.94 9.94 0 0 0-1.985-.401c-.05-.138-.098-.271-.145-.383L44.67 7.801c-.209-.508-.822-.838-1.361-.732l-1.964.381c-.539.105-.983.642-.986 1.191l-.017 3.099c0 .121.005.264.012.409a9.819 9.819 0 0 0-1.691 1.116 7.618 7.618 0 0 0-.37-.168l-2.859-1.195a1.197 1.197 0 0 0-.687-.06 1.239 1.239 0 0 0-.794.503l-1.119 1.658c-.308.456-.243 1.148.144 1.54l2.18 2.203c.084.085.188.182.295.278a9.963 9.963 0 0 0-.401 1.986c-.139.05-.271.098-.384.145l-2.866 1.176c-.508.209-.839.822-.734 1.361l.382 1.963c.105.54.641.984 1.191.987l3.099.017c.121 0 .264-.004.409-.012.317.605.69 1.172 1.116 1.691-.063.131-.123.26-.17.37l-1.195 2.86c-.211.507-.013 1.173.443 1.48l1.658 1.119c.264.177.606.23.925.169.232-.045.45-.151.615-.313l2.203-2.18c.085-.084.182-.188.278-.296a9.965 9.965 0 0 0 1.986.402c.05.138.098.271.145.383L45.33 34.2c.209.509.822.839 1.361.733l1.964-.381c.539-.105.983-.642.986-1.191l.016-3.099a7.576 7.576 0 0 0-.011-.409 9.877 9.877 0 0 0 1.691-1.116c.13.063.258.123.369.169l2.86 1.194c.213.089.454.105.687.06.318-.062.617-.239.794-.503l1.119-1.658c.307-.456.242-1.148-.145-1.54l-2.18-2.203a7.037 7.037 0 0 0-.295-.278c.2-.642.333-1.307.401-1.987.138-.048.271-.096.383-.143l2.868-1.177c.508-.209.838-.822.732-1.361l-.381-1.964c-.103-.539-.638-.984-1.189-.987zm.592 3.141c.015.073-.064.218-.133.246l-2.865 1.177a7.231 7.231 0 0 1-.332.123l-.604.209-.063.637a8.92 8.92 0 0 1-.361 1.786l-.19.61.474.43c.093.084.183.168.256.241l2.179 2.203c.053.053.068.216.026.277l-1.117 1.658a.284.284 0 0 1-.156.082.21.21 0 0 1-.111-.002l-2.86-1.194a9.603 9.603 0 0 1-.319-.147l-.575-.277-.494.405a8.92 8.92 0 0 1-1.521 1.004l-.562.295.027.636c.007.129.011.254.011.358l-.017 3.098c0 .076-.105.202-.178.216l-1.963.383c-.073.014-.218-.065-.246-.133l-1.176-2.865a6.757 6.757 0 0 1-.125-.339l-.213-.599-.632-.063a8.92 8.92 0 0 1-1.786-.361l-.61-.19-.43.474a7.214 7.214 0 0 1-.241.256l-2.203 2.179a.204.204 0 0 1-.103.043.256.256 0 0 1-.175-.017l-1.658-1.117c-.062-.043-.109-.199-.08-.268l1.193-2.858c.042-.097.095-.209.149-.324l.274-.575-.403-.491a8.92 8.92 0 0 1-1.004-1.521l-.298-.566-.64.033c-.126.006-.249.01-.352.011l-3.099-.018c-.075 0-.201-.105-.215-.178l-.382-1.963c-.014-.073.065-.218.133-.246l2.863-1.175c.1-.04.217-.084.34-.126l.6-.212.063-.633a8.92 8.92 0 0 1 .361-1.786l.19-.61-.474-.43a7.214 7.214 0 0 1-.256-.241l-2.18-2.202c-.052-.053-.067-.217-.025-.278l1.117-1.658a.28.28 0 0 1 .156-.082.21.21 0 0 1 .111.002l2.858 1.194c.097.041.209.094.324.147l.575.275.491-.403c.46-.378.972-.717 1.521-1.004l.562-.296-.027-.635a6.88 6.88 0 0 1-.011-.358l.017-3.099c0-.075.105-.201.178-.215l1.963-.383c.073-.015.218.064.246.132l1.176 2.866c.04.098.083.217.125.339l.213.599.632.063a8.92 8.92 0 0 1 1.786.361l.61.19.43-.474c.084-.093.168-.183.241-.256l2.203-2.179a.204.204 0 0 1 .103-.043c.088-.018.156.002.175.017l1.658 1.117c.062.042.109.199.08.268l-1.194 2.86a9.603 9.603 0 0 1-.147.319l-.277.575.405.494c.378.46.717.973 1.004 1.521l.298.566.64-.033a9.57 9.57 0 0 1 .352-.011l3.099.018c.074 0 .201.105.215.178l.38 1.963z"></path><path d="M44.236 17.075a3.996 3.996 0 0 0-3.162 4.689 3.998 3.998 0 0 0 4.689 3.162 3.998 3.998 0 0 0 3.162-4.689 3.997 3.997 0 0 0-4.689-3.162zm1.337 6.871a3.003 3.003 0 0 1-3.519-2.372 3.003 3.003 0 0 1 2.372-3.519 3.002 3.002 0 0 1 1.147 5.891z"></path><path d="M40.05 16.051a7.004 7.004 0 0 0 0 9.9 7 7 0 1 0 0-9.9zm9.192 9.192a5.999 5.999 0 1 1-8.484-8.484 5.999 5.999 0 1 1 8.484 8.484zM57.734 49.717c.548-.053 1.063-.541 1.145-1.085v-.001c.076-.508-.223-1.079-.675-1.325a.911.911 0 0 0-.1-.047l-1.962-.814c-.05-.021-.116-.042-.172-.063a8.02 8.02 0 0 0-.641-2.565c.041-.047.089-.098.125-.141l1.349-1.636c.35-.426.369-1.136.043-1.578h-.001a1.213 1.213 0 0 0-.394-.337c-.341-.186-.774-.23-1.124-.086l-1.963.812c-.049.021-.11.051-.163.075a7.962 7.962 0 0 0-1.382-.952 8.088 8.088 0 0 0-.89-.41c-.003-.061-.004-.13-.01-.184l-.204-2.113c-.04-.414-.329-.81-.703-1.014a1.169 1.169 0 0 0-.382-.13h-.001c-.543-.082-1.161.267-1.373.774l-.814 1.962c-.021.05-.042.115-.063.171a8.027 8.027 0 0 0-2.565.641c-.047-.041-.097-.089-.139-.124l-1.639-1.35a.997.997 0 0 0-.176-.117c-.425-.231-1.014-.21-1.4.074v.002c-.443.326-.633 1.009-.423 1.518l.811 1.963c.021.049.05.108.075.162-.359.418-.68.879-.954 1.382-.158.291-.291.59-.409.89-.06.004-.129.005-.184.01l-2.113.205c-.547.052-1.062.54-1.144 1.084h.001c-.077.508.221 1.08.674 1.326.033.018.065.033.1.048l1.962.813c.05.021.114.041.17.063.069.887.287 1.754.64 2.568-.04.045-.088.095-.124.137l-1.35 1.639c-.35.425-.368 1.134-.042 1.576h.001c.102.139.239.252.394.337.342.186.775.23 1.125.086l1.962-.811c.049-.02.108-.05.161-.074.418.358.879.68 1.382.953.292.159.589.29.89.409.004.061.005.13.01.184l.205 2.112c.04.414.329.81.703 1.014.12.065.249.11.381.13l.001.001c.544.081 1.161-.267 1.372-.774l.814-1.962c.021-.05.042-.114.063-.171a8.019 8.019 0 0 0 2.568-.641c.046.04.096.089.138.124l1.637 1.349c.054.045.113.084.175.118.426.231 1.016.209 1.4-.076h.001c.442-.327.632-1.01.423-1.518l-.812-1.963c-.021-.049-.051-.108-.075-.162.358-.419.679-.879.953-1.382.159-.291.291-.59.41-.891.06-.003.13-.005.185-.01l2.117-.205zm-2.206-.792-.068.004-.076.003-.64.035-.236.596a6.883 6.883 0 0 1-.358.781 7.034 7.034 0 0 1-.834 1.211l-.41.479.257.576.043.091.021.046.811 1.962c.034.082-.014.263-.083.325l-.011.008c-.055.041-.222.058-.342-.008l-.002-.001-1.633-1.346-.047-.042-.07-.064-.477-.421-.583.253a7.05 7.05 0 0 1-2.249.563l-.641.051-.22.604-.021.059-.025.071-.814 1.96c-.035.085-.209.184-.302.17-.003-.001-.021-.004-.051-.021-.105-.057-.18-.175-.185-.231l-.205-2.109-.003-.056-.005-.102-.043-.63-.587-.232a6.965 6.965 0 0 1-.781-.358 6.998 6.998 0 0 1-1.209-.834l-.493-.422-.586.278-.044.021-.003.001-.067.031-1.961.811c-.046.02-.164.016-.266-.04-.047-.025-.064-.049-.066-.051l-.011-.015c-.045-.083-.038-.266.018-.333l1.346-1.633.044-.049.059-.064.425-.478-.254-.586a6.97 6.97 0 0 1-.561-2.248l-.05-.628-.588-.227-.103-.038-.044-.015-1.967-.817c-.094-.051-.176-.219-.164-.298.013-.09.161-.23.251-.239l2.11-.203.056-.003.102-.005.63-.043.232-.588c.119-.3.236-.555.358-.779.232-.427.513-.833.834-1.209l.416-.485-.266-.581-.032-.07-.026-.058-.812-1.963c-.035-.083.019-.277.091-.331l.013-.009a.402.402 0 0 1 .332.016l.003.002 1.633 1.345.045.041.074.067.477.418.582-.252a6.985 6.985 0 0 1 2.246-.562l.628-.049.227-.589.038-.102.016-.046.814-1.96c.034-.083.211-.184.299-.17l.01.001a.206.206 0 0 1 .044.019c.105.057.18.175.186.23l.203 2.11.003.061.005.09.038.636.592.235c.306.121.553.234.78.357.426.232.833.512 1.209.834l.486.415.58-.267.067-.031.062-.027 1.961-.811c.045-.02.163-.017.265.039a.22.22 0 0 1 .068.053c.055.074.049.275-.01.347l-1.347 1.635-.041.046-.066.072-.417.477.251.581c.313.718.5 1.474.561 2.246l.05.628.588.227.1.037.048.018 1.967.816c.093.051.175.219.163.3-.013.091-.16.229-.251.237l-2.111.203z"></path><path d="M49.671 43.926a3.5 3.5 0 1 0-3.344 6.15 3.5 3.5 0 0 0 3.344-6.15zm-2.865 5.271a2.5 2.5 0 1 1 2.387-4.393 2.5 2.5 0 0 1-2.387 4.393z"></path></g></svg>